<svg version="1.2" xmlns="http://www.w3.org/2000/svg" viewBox="0 0 600 57" width="250" height="29">
	<title>learn&amp;fun-svg</title>
	<style>
		.s0 { fill: #289bde } 
	</style>
	<g id="Layer" style="opacity: .4">
		<g id="Layer">
			<g id="Layer">
				<path id="Layer" class="s0" d="m37.6 47.6l-27.4-12.7v-4.8l27.4-14.4v8.5l-16.2 7.9 16.2 7.1z"/>
			</g>
		</g>
	</g>
	<g id="Layer" style="opacity: .4">
		<g id="Layer">
			<g id="Layer">
				<path id="Layer" class="s0" d="m41.3 52.6l8.7-41.2h11l-6.8 32.2h13.5l-2 9z"/>
			</g>
		</g>
	</g>
	<g id="Layer" style="opacity: .4">
		<g id="Layer">
			<g id="Layer">
				<path id="Layer" class="s0" d="m73.8 39.2l16.2-7.1-16.2-7.9v-8.5l27.4 14.4v4.8l-27.4 12.7z"/>
			</g>
		</g>
	</g>
	<g id="Layer" style="opacity: .4">
		<g id="Layer">
			<g id="Layer">
			</g>
		</g>
	</g>
	<g id="Layer" style="opacity: .4">
		<g id="Layer">
			<g id="Layer">
				<path id="Layer" class="s0" d="m119.3 52.6l8.7-41.2h11l-6.8 32.2h13.5l-1.9 9z"/>
			</g>
		</g>
	</g>
	<g id="Layer" style="opacity: .4">
		<g id="Layer">
			<g id="Layer">
				<path id="Layer" fill-rule="evenodd" class="s0" d="m163.8 53.1q-6 0-9.3-3.3-3.4-3.3-3.4-9.3 0-5.9 2.4-10.7 2.3-4.8 6.4-7.3 4.1-2.4 9.5-2.4 5.4 0 8.4 2.4 3.1 2.4 3.1 6.5 0 5.6-4.4 8.7-4.4 3-12.7 3h-1.7v0.4q0 4.2 4.6 4.2 2.2 0 4.4-0.7 2.1-0.6 4.9-2.1v7.7q-3.2 1.7-5.9 2.3-2.8 0.6-6.3 0.6zm4.4-25.6q-1.7 0-3.2 1.9-1.5 2-1.8 4.5h0.8q3.1 0 4.8-1.2 1.8-1.2 1.8-3.1 0-0.9-0.6-1.5-0.6-0.6-1.8-0.6z"/>
			</g>
		</g>
	</g>
	<g id="Layer" style="opacity: .4">
		<g id="Layer">
			<g id="Layer">
				<path id="Layer" fill-rule="evenodd" class="s0" d="m209.8 52.6h-8.7l0.3-3.5h-0.2q-1.6 2.2-3.5 3.1-1.8 0.9-4.1 0.9-4.4 0-6.8-3.1-2.3-3.2-2.3-9 0-5.1 2.1-10.3 2.1-5.3 5.2-7.9 3.1-2.7 6.9-2.7 2.4 0 4.2 1 1.8 1.1 3.2 3.5h0.2l1.5-3.9h8.8zm-11.7-8.2q1.4 0 2.6-1.7 1.3-1.6 2.1-4.4 0.7-2.8 0.7-5.4 0-1.8-0.5-2.9-0.6-1.2-1.8-1.2-2.1 0-3.8 3.6-1.8 3.6-1.8 7.9 0 4.1 2.5 4.1z"/>
			</g>
		</g>
	</g>
	<g id="Layer" style="opacity: .4">
		<g id="Layer">
			<g id="Layer">
				<path id="Layer" class="s0" d="m242.6 20.1q1.5 0 2.2 0.2l-2.4 10.8q-1.5-0.6-3.4-0.6-2.9 0-4.7 2-1.7 2-2.6 6l-3 14.1h-10.9l6.8-31.9h8.7l-0.5 5.3h0.2q1.8-3.2 4-4.5 2.1-1.4 5.6-1.4z"/>
			</g>
		</g>
	</g>
	<g id="Layer" style="opacity: .4">
		<g id="Layer">
			<g id="Layer">
				<path id="Layer" class="s0" d="m264.5 31.2q0-1.3-0.6-1.9-0.6-0.6-1.5-0.6-1.6 0-3 2-1.3 2-2.2 6.3l-3.3 15.6h-10.9l6.8-31.9h8.7l-0.4 4.4h0.3q1.5-2.7 3.6-3.9 2.1-1.1 5.1-1.1 4 0 6.2 2.4 2.3 2.4 2.3 6.7 0 2.9-0.7 6.4l-3.6 17h-10.9l3.6-17.4q0.5-2.2 0.5-4z"/>
			</g>
		</g>
	</g>
	<g id="Layer" style="opacity: .4">
		<g id="Layer">
			<g id="Layer">
			</g>
		</g>
	</g>
	<g id="Layer" style="opacity: .4">
		<g id="Layer">
			<g id="Layer">
				<path id="Layer" fill-rule="evenodd" class="s0" d="m293.5 41.7q0-4.5 2.4-7.4 2.5-3 7.7-4.7-1.1-1.3-1.7-3.3-0.7-2.1-0.7-3.7 0-5.6 3.6-8.7 3.5-3.2 10-3.2 5.3 0 8.5 2.5 3.2 2.5 3.2 6.7 0 3.6-2.3 6.5-2.2 2.9-7.3 5.6l3.6 5.2q1-1 2.1-3.2 1.1-2.2 1.8-4.6h10.8q-1.3 4.6-3.6 8.6-2.4 4.1-5.4 7.2l5.4 7.4h-12.4l-1.2-1.8q-4.4 2.3-9.9 2.3-6.9 0-10.7-3-3.9-3-3.9-8.4zm20.7-23.5q-1.3 0-2.2 0.9-0.9 1-0.9 2.7 0 2.1 1.5 4.1 2-0.9 3-2.3 0.9-1.3 0.9-3 0-1-0.6-1.7-0.6-0.7-1.7-0.7zm-4.9 26.3q2.2 0 3.9-0.8l-5.4-7.8q-3.3 1.5-3.3 4.7 0 1.8 1.3 2.8 1.4 1.1 3.5 1.1z"/>
			</g>
		</g>
	</g>
	<g id="Layer" style="opacity: .4">
		<g id="Layer">
			<g id="Layer">
			</g>
		</g>
	</g>
	<g id="Layer" style="opacity: .4">
		<g id="Layer">
			<g id="Layer">
				<path id="Layer" class="s0" d="m362.4 52.6h-11l8.7-41.2h24.3l-1.9 8.9h-13.2l-1.7 7.9h12.3l-1.9 9h-12.4z"/>
			</g>
		</g>
	</g>
	<g id="Layer" style="opacity: .4">
		<g id="Layer">
			<g id="Layer">
				<path id="Layer" class="s0" d="m397 42q0 1.2 0.7 1.8 0.6 0.6 1.5 0.6 1.6 0 3-2.2 1.4-2.2 2.2-6l3.3-15.5h10.9l-6.8 31.9h-8.7l0.4-4.5h-0.3q-1.5 2.6-3.6 3.8-2.1 1.2-5.2 1.2-3.9 0-6.2-2.4-2.2-2.4-2.2-6.6 0-3 0.7-6.5l3.6-16.9h10.9l-3.6 17.3q-0.6 2.3-0.6 4z"/>
			</g>
		</g>
	</g>
	<g id="Layer" style="opacity: .4">
		<g id="Layer">
			<g id="Layer">
				<path id="Layer" class="s0" d="m441.3 31.2q0-1.3-0.6-1.9-0.6-0.6-1.5-0.6-1.6 0-3 2-1.3 2-2.2 6.3l-3.3 15.6h-10.9l6.8-31.9h8.7l-0.4 4.4h0.3q1.5-2.7 3.6-3.9 2.1-1.1 5.2-1.1 3.9 0 6.2 2.4 2.2 2.4 2.2 6.7 0 2.9-0.7 6.4l-3.6 17h-10.9l3.6-17.4q0.5-2.2 0.5-4z"/>
			</g>
		</g>
	</g>
	<g id="Layer" style="opacity: .4">
		<g id="Layer">
			<g id="Layer">
			</g>
		</g>
	</g>
	<g id="Layer" style="opacity: .4">
		<g id="Layer">
			<g id="Layer">
				<path id="Layer" class="s0" d="m500 47.6l-27.5-12.7v-4.8l27.5-14.4v8.5l-16.3 7.9 16.3 7.1z"/>
			</g>
		</g>
	</g>
	<g id="Layer" style="opacity: .4">
		<g id="Layer">
			<g id="Layer">
				<path id="Layer" class="s0" d="m533.5 10.8l-23.6 42.3h-9.7l23.6-42.3z"/>
			</g>
		</g>
	</g>
	<g id="Layer" style="opacity: .4">
		<g id="Layer">
			<g id="Layer">
				<path id="Layer" class="s0" d="m541.6 52.6h-11.1l8.8-41.2h24.2l-1.8 8.9h-13.3l-1.6 7.9h12.2l-1.9 9h-12.3z"/>
			</g>
		</g>
	</g>
	<g id="Layer" style="opacity: .4">
		<g id="Layer">
			<g id="Layer">
				<path id="Layer" class="s0" d="m565.5 39.2l16.2-7.1-16.2-7.9v-8.5l27.4 14.4v4.8l-27.4 12.7z"/>
			</g>
		</g>
	</g>
	<g id="Layer">
		<g id="Layer">
			<g id="Layer">
				<path id="Layer" class="s0" d="m36.2 45.2l-27.4-12.7v-4.9l27.4-14.3v8.4l-16.2 8 16.2 7.1z"/>
			</g>
		</g>
	</g>
	<g id="Layer">
		<g id="Layer">
			<g id="Layer">
				<path id="Layer" class="s0" d="m39.9 50.1l8.7-41.2h11l-6.8 32.2h13.5l-2 9z"/>
			</g>
		</g>
	</g>
	<g id="Layer">
		<g id="Layer">
			<g id="Layer">
				<path id="Layer" class="s0" d="m72.4 36.8l16.2-7.1-16.2-8v-8.4l27.4 14.3v4.9l-27.4 12.7z"/>
			</g>
		</g>
	</g>
	<g id="Layer">
		<g id="Layer">
			<g id="Layer">
			</g>
		</g>
	</g>
	<g id="Layer">
		<g id="Layer">
			<g id="Layer">
				<path id="Layer" class="s0" d="m117.9 50.1l8.7-41.2h11l-6.8 32.2h13.5l-2 9z"/>
			</g>
		</g>
	</g>
	<g id="Layer">
		<g id="Layer">
			<g id="Layer">
				<path id="Layer" fill-rule="evenodd" class="s0" d="m162.3 50.7q-5.9 0-9.3-3.3-3.3-3.4-3.3-9.3 0-6 2.4-10.7 2.3-4.8 6.4-7.3 4.1-2.5 9.5-2.5 5.4 0 8.4 2.5 3.1 2.4 3.1 6.4 0 5.7-4.4 8.7-4.4 3-12.8 3h-1.6v0.5q0 4.2 4.6 4.2 2.2 0 4.4-0.7 2.1-0.7 4.8-2.1v7.7q-3.1 1.6-5.8 2.3-2.8 0.6-6.4 0.6zm4.5-25.7q-1.7 0-3.2 2-1.5 1.9-1.8 4.4h0.8q3.1 0 4.8-1.2 1.8-1.1 1.8-3 0-0.9-0.6-1.5-0.6-0.7-1.8-0.7z"/>
			</g>
		</g>
	</g>
	<g id="Layer">
		<g id="Layer">
			<g id="Layer">
				<path id="Layer" fill-rule="evenodd" class="s0" d="m208.4 50.1h-8.7l0.3-3.4h-0.3q-1.5 2.2-3.4 3.1-1.8 0.9-4.1 0.9-4.5 0-6.8-3.2-2.3-3.1-2.3-9 0-5 2.1-10.3 2-5.2 5.2-7.9 3.1-2.7 6.9-2.7 2.4 0 4.2 1.1 1.8 1.1 3.2 3.5h0.2l1.5-4h8.8zm-11.7-8.2q1.4 0 2.6-1.6 1.3-1.7 2.1-4.4 0.7-2.8 0.7-5.4 0-1.9-0.5-3-0.6-1.1-1.8-1.1-2.1 0-3.9 3.6-1.7 3.5-1.7 7.9 0 4 2.5 4z"/>
			</g>
		</g>
	</g>
	<g id="Layer">
		<g id="Layer">
			<g id="Layer">
				<path id="Layer" class="s0" d="m241.1 17.6q1.6 0 2.3 0.3l-2.4 10.8q-1.5-0.7-3.4-0.7-2.9 0-4.7 2-1.7 2-2.6 6.1l-3 14h-10.9l6.7-31.9h8.7l-0.5 5.3h0.3q1.8-3.1 4-4.5 2.1-1.4 5.5-1.4z"/>
			</g>
		</g>
	</g>
	<g id="Layer">
		<g id="Layer">
			<g id="Layer">
				<path id="Layer" class="s0" d="m263.1 28.7q0-1.2-0.6-1.8-0.6-0.6-1.5-0.6-1.6 0-3 2-1.3 2-2.2 6.2l-3.3 15.6h-10.9l6.8-31.9h8.7l-0.4 4.5h0.2q1.6-2.7 3.7-3.9 2.1-1.2 5.1-1.2 4 0 6.2 2.5 2.3 2.4 2.3 6.6 0 3-0.7 6.5l-3.6 16.9h-10.9l3.6-17.4q0.5-2.2 0.5-4z"/>
			</g>
		</g>
	</g>
	<g id="Layer">
		<g id="Layer">
			<g id="Layer">
			</g>
		</g>
	</g>
	<g id="Layer">
		<g id="Layer">
			<g id="Layer">
				<path id="Layer" fill-rule="evenodd" class="s0" d="m292.1 39.3q0-4.5 2.4-7.5 2.5-2.9 7.7-4.6-1.1-1.3-1.7-3.4-0.7-2-0.7-3.7 0-5.5 3.6-8.7 3.5-3.1 10-3.1 5.3 0 8.5 2.5 3.2 2.5 3.2 6.6 0 3.7-2.3 6.6-2.2 2.9-7.3 5.5l3.6 5.3q1-1 2.1-3.2 1.1-2.3 1.8-4.6h10.8q-1.3 4.5-3.6 8.6-2.4 4.1-5.4 7.1l5.4 7.4h-12.4l-1.3-1.7q-4.3 2.3-9.8 2.3-6.9 0-10.7-3-3.9-3-3.9-8.4zm20.7-23.6q-1.4 0-2.2 1-0.9 1-0.9 2.7 0 2.1 1.5 4 2-0.9 3-2.2 0.9-1.4 0.9-3 0-1-0.6-1.7-0.6-0.8-1.7-0.8zm-4.9 26.3q2.2 0 3.9-0.7l-5.4-7.8q-3.3 1.4-3.3 4.7 0 1.7 1.3 2.8 1.4 1 3.5 1z"/>
			</g>
		</g>
	</g>
	<g id="Layer">
		<g id="Layer">
			<g id="Layer">
			</g>
		</g>
	</g>
	<g id="Layer">
		<g id="Layer">
			<g id="Layer">
				<path id="Layer" class="s0" d="m361 50.1h-11l8.7-41.2h24.3l-1.9 9h-13.2l-1.7 7.8h12.3l-1.9 9h-12.4z"/>
			</g>
		</g>
	</g>
	<g id="Layer">
		<g id="Layer">
			<g id="Layer">
				<path id="Layer" class="s0" d="m395.6 39.6q0 1.2 0.7 1.8 0.6 0.6 1.5 0.6 1.6 0 3-2.2 1.4-2.2 2.2-6.1l3.3-15.5h10.8l-6.7 31.9h-8.7l0.4-4.4h-0.3q-1.5 2.6-3.6 3.8-2.1 1.2-5.2 1.2-3.9 0-6.2-2.4-2.2-2.4-2.2-6.7 0-2.9 0.7-6.4l3.6-17h10.9l-3.6 17.4q-0.6 2.3-0.6 4z"/>
			</g>
		</g>
	</g>
	<g id="Layer">
		<g id="Layer">
			<g id="Layer">
				<path id="Layer" class="s0" d="m439.9 28.7q0-1.2-0.6-1.8-0.6-0.6-1.5-0.6-1.6 0-3 2-1.3 2-2.2 6.2l-3.3 15.6h-10.9l6.8-31.9h8.7l-0.4 4.5h0.3q1.5-2.7 3.6-3.9 2.1-1.2 5.2-1.2 3.9 0 6.1 2.5 2.3 2.4 2.3 6.6 0 3-0.7 6.5l-3.6 16.9h-10.9l3.6-17.4q0.5-2.2 0.5-4z"/>
			</g>
		</g>
	</g>
	<g id="Layer">
		<g id="Layer">
			<g id="Layer">
			</g>
		</g>
	</g>
	<g id="Layer">
		<g id="Layer">
			<g id="Layer">
				<path id="Layer" class="s0" d="m498.5 45.2l-27.4-12.7v-4.9l27.4-14.3v8.4l-16.2 8 16.2 7.1z"/>
			</g>
		</g>
	</g>
	<g id="Layer">
		<g id="Layer">
			<g id="Layer">
				<path id="Layer" class="s0" d="m532.1 8.4l-23.6 42.3h-9.7l23.6-42.3z"/>
			</g>
		</g>
	</g>
	<g id="Layer">
		<g id="Layer">
			<g id="Layer">
				<path id="Layer" class="s0" d="m540.2 50.1h-11.1l8.8-41.2h24.2l-1.8 9h-13.3l-1.7 7.8h12.3l-1.9 9h-12.4z"/>
			</g>
		</g>
	</g>
	<g id="Layer">
		<g id="Layer">
			<g id="Layer">
				<path id="Layer" class="s0" d="m564.1 36.8l16.2-7.1-16.2-8v-8.4l27.4 14.3v4.9l-27.4 12.7z"/>
			</g>
		</g>
	</g>
</svg>